<?xml version="1.0" encoding="utf-8"?>
<!-- Generator: Adobe Illustrator 15.0.2, SVG Export Plug-In . SVG Version: 6.00 Build 0)  -->
<!DOCTYPE svg PUBLIC "-//W3C//DTD SVG 1.1//EN" "http://www.w3.org/Graphics/SVG/1.1/DTD/svg11.dtd">
<svg version="1.1" id="Layer_1" xmlns="http://www.w3.org/2000/svg" xmlns:xlink="http://www.w3.org/1999/xlink" x="0px" y="0px" viewBox="0 0 489.778 251.111" enable-background="new 0 0 489.778 251.111"
	 xml:space="preserve">
<path fill="#C29E31" d="M167.165,46.051l12.693,32.968l-23.412,0.01L167.165,46.051 M32.542,116.97l0.008-4.482l-3.946-0.689
	c-0.932-0.184-1.835-0.51-2.668-0.966c-0.833-0.457-1.594-1.043-2.249-1.731c-2.081-2.152-2.527-4.764-2.698-7.295
	c-0.053-0.752-0.077-1.508-0.073-2.264L21.35,24.25l37.165,92.549c0.106,0.561,1.269,1.502,2.197,1.249
	c0.535-0.038,1.353-0.66,1.523-1.238l38.236-99.119c0.601,28.63,1.24,57.254,1.803,85.89c-0.086,1.114-0.36,2.254-0.856,3.359
	c-0.461,0.937-1.059,1.807-1.769,2.572c-1.556,1.669-3.444,2.679-5.324,3.131l-4.085,0.961l-0.003,3.38l65.532-0.005l0.006-3.146
	c-1.969-0.452-4.035-0.16-6.234-2.392c-1.808-2.034-2.279-4.6-1.436-7.097l6.759-20.448l27.118,0.001
	c1.201,3.642,2.432,7.273,3.704,10.892c1.271,3.618,2.583,7.222,3.29,9.226c0.707,2.004,0.81,2.407,0.877,2.816
	c0.16,1.828,0.411,3.529-2.1,5.688c-1.817,1.392-3.899,1.001-5.893,1.212l0.006,3.251l33.827-0.015l0.01-3.035
	c-1.705-0.266-3.365-0.831-4.875-1.665s-2.873-1.938-4.002-3.243s-2.022-2.813-2.639-4.425l-31.284-81.795
	c-0.099-0.583-1.269-1.391-2.169-0.446c-0.098,0.113-0.179,0.242-0.229,0.382c-9.852,27.229-19.657,54.426-29.554,81.685
	c-0.578,1.429-1.468,3.415-2.805,4.918c-0.836,0.977-1.807,1.838-2.877,2.551c-1.07,0.713-2.238,1.278-3.461,1.675l-0.753-1.582
	c-1.869,0.158-3.909-0.186-5.822-1.244c-0.881-0.488-1.689-1.107-2.389-1.831c-1.718-1.774-2.675-4.05-2.689-6.176l-2.539-86.173
	c-0.118-1.676,0.105-3.398,0.764-5.114c0.328-0.889,0.798-1.725,1.39-2.464c1.32-1.641,3.018-2.59,4.698-3.018l3.706-0.851
	l-0.005-2.548h-27.25L67.203,87.719c-0.087,0.526-1.407,1.171-1.962-0.018L31.664,2.56H5.771v3.179
	c1.505,0.467,2.977,0.761,4.516,1.4c0.6,0.266,1.197,0.597,1.78,1.006c3.937,2.801,2.957,6.529,3.118,9.905
	c-0.324,28.002-0.595,56.001-0.973,84.007c-0.103,1.468-0.084,3.128-0.759,4.65c-0.348,0.831-0.833,1.604-1.428,2.279
	c-1.304,1.48-2.965,2.313-4.597,2.653l-4.307,0.919l0.007,4.408L32.542,116.97 M217.491,91.088l3.535-0.044
	c0.196,2.133,0.665,4.298,1.454,6.418c0.384,1.03,0.839,2.033,1.274,2.888c1.552,2.879,3.034,5.211,6.037,7.959
	c2.405,2.137,5.522,3.503,8.071,4.305c4.765,1.438,8.845,1.758,13.813-0.938c1.585-0.933,3.04-2.047,4.565-3.885
	c3.155-3.896,3.314-8.287,2.984-12.255c-0.179-1.563-0.583-3.34-1.273-4.995c-0.333-0.807-0.726-1.59-1.091-2.224
	c-0.665-1.147-1.315-1.956-2.295-2.865c-1.338-1.212-2.941-2.066-4.419-3.089l-19.238-12.431c-1.314-0.874-2.604-1.845-3.863-2.936
	c-3.206-2.832-5.323-5.795-6.946-9.021c-2.91-5.792-2.706-11.585-1.929-17.425c0.266-1.808,0.762-3.583,1.475-5.267
	c0.712-1.684,1.641-3.276,2.756-4.724c2.409-3.181,5.745-5.438,8.722-6.849c0.86-0.408,1.741-0.771,2.825-1.144
	c2.239-0.772,5.042-1.47,7.625-1.81c6.551-0.724,13.128-0.446,19.752,0.786c2.101,0.471,4.205,1.147,6.276,2.049l0.751,22.444
	l-3.534-0.033c-0.046-2.128-0.414-4.25-1.093-6.267c-0.68-2.018-1.669-3.931-2.923-5.65c-2.512-3.5-6.237-6.049-9.506-7.345
	c-4.652-1.886-9.403-2.081-14.446,0.088c-1.593,0.629-3.607,2.334-4.537,3.938c-2.526,4.228-2.355,8.663-1.089,13.049
	c0.871,2.524,2.24,4.665,5.073,7.267c0.609,0.541,1.246,1.052,1.917,1.513l20.452,14.017c1.401,0.958,2.753,2.045,4.092,3.226
	c2.94,2.66,4.726,5.475,6.004,8.511c0.848,2.04,1.348,3.94,1.691,5.928c0.96,6.272,0.458,14.456-3.414,21.762
	c-0.576,1.101-1.216,2.169-1.913,3.197c-1.087,1.568-2.383,2.992-3.844,4.221c-1.461,1.228-3.086,2.26-4.819,3.06
	c-3.522,1.676-7.432,2.061-11.215,2.363c-1.93,0.127-3.867,0.155-5.8,0.084c-1.933-0.071-3.862-0.242-6.149-0.563
	c-4.571-0.636-10.194-1.848-15.301-3.567L217.491,91.088 M271.428,22.404l-0.646,23.999l4.119,0.001
	c0.326-4.129,0.74-8.303,4.654-12.683c0.818-0.891,1.76-1.671,2.788-2.308c2.116-1.311,4.536-1.974,6.895-1.979l11.541-0.016
	l0.003,72.052c0,1.329-0.204,2.661-0.65,3.913c-0.445,1.252-1.117,2.423-1.973,3.44c-1.617,2.057-4.065,2.996-6.236,4.061v4.079
	l32.286,0.011v-4.09l-3.188-1.523c-1.154-0.658-2.193-1.521-3.048-2.538c-1.796-2.123-2.644-4.798-2.624-7.354l0.004-72.052
	l11.541,0.016c1.21,0.002,2.42,0.18,3.584,0.514c1.163,0.333,2.28,0.828,3.31,1.465c2.618,1.625,4.357,3.975,5.381,6.067
	c1.365,2.908,1.923,5.922,2.063,8.924l4.118-0.001l-0.649-23.998L271.428,22.404 M409.203,92.511l-2.631,0.006
	c-0.21,3.109-1.024,6.325-2.602,9.414c-0.745,1.459-1.64,2.843-2.663,4.123c-3.437,3.894-7.09,5.553-10.804,5.569l-12.008-0.011
	c-0.888-0.001-1.776-0.145-2.62-0.421c-0.845-0.276-1.645-0.687-2.362-1.211c-0.717-0.524-1.352-1.162-1.871-1.882
	c-1.081-1.491-1.611-3.271-1.606-4.991V71.272l14.353-0.009c1.442,0.032,2.926,0.409,4.438,1.489
	c3.105,2.434,3.437,5.319,3.73,8.164c0.08,0.898,0.105,1.802,0.131,2.705l3.197-0.006l0.011-31.108l-3.223,0.009
	c-0.024,2.762-0.622,5.594-2.07,8.424c-0.488,0.877-1.132,1.668-1.894,2.322c-1.594,1.373-3.608,2.042-5.533,2.036l-13.141,0.006
	V27.785l16.518,0.029c1.679,0.003,3.36,0.278,4.94,0.844c1.581,0.566,3.062,1.414,4.35,2.49c3.821,3.32,5.617,7.85,5.74,11.994
	l4.277,0.007l-2.045-20.745l-55.237-0.004l-0.001,3.333c1.498,0.648,3.152,0.908,4.791,2.208c2.163,1.789,2.885,3.955,2.888,6.123
	l-0.005,70.89c0,0.932-0.152,1.864-0.451,2.747c-0.298,0.883-0.743,1.716-1.31,2.456c-1.271,1.653-2.925,2.608-4.563,3.056
	l-2.813,0.77l-0.004,3l61.068-0.009L409.203,92.511"/>
<path fill="#C29E31" d="M435.46,27.391l8.883-0.017c1.461-0.003,2.924,0.222,4.311,0.681c1.388,0.459,2.699,1.147,3.865,2.028
	c3.079,2.315,4.653,5.646,5.579,8.595c1.321,5.08,1.612,10.296,0.729,15.538c-0.211,1.077-0.504,2.138-0.871,3.174
	c-0.368,1.035-0.81,2.045-1.297,2.947c-0.488,0.902-1.021,1.697-1.636,2.425c-2.636,3.108-6.108,4.377-9.06,4.901
	c-0.789,0.135-1.586,0.214-2.664,0.264c-2.21,0.104-5.209,0.061-7.856-0.22L435.46,27.391 M444.937,116.979v-3.273
	c-1.699-0.327-3.592-0.233-5.406-1.289c-0.77-0.432-1.462-1.004-2.033-1.679c-1.199-1.409-1.77-3.185-1.759-4.883l-0.035-33.607
	c1.718-0.353,3.62-0.228,5.414,0.513c0.851,0.351,1.648,0.829,2.358,1.414c1.7,1.38,2.706,3.328,3.462,5.054l9.546,22.21
	c0.661,1.537,1.431,3.029,2.324,4.443s1.904,2.756,3.018,4.004c2.301,2.561,4.684,4.476,6.976,5.713
	c4.544,2.538,9.961,3.084,14.766,2.682c1.188-0.1,2.368-0.265,3.537-0.494l-0.001-3.421c-1.47-0.022-2.937-0.3-4.312-0.821
	c-1.374-0.522-2.656-1.289-3.767-2.252c-2.523-2.119-3.749-5.272-5.079-8.001l-15.015-33.292c3.114-1.706,6.154-3.728,9.298-6.702
	c0.922-0.902,1.79-1.884,2.546-2.947c3.406-4.767,3.797-9.938,3.659-15.069c-0.061-1.328-0.199-2.652-0.367-3.799
	c-0.475-3.171-1.301-5.798-2.794-8.613c-0.499-0.909-1.092-1.824-1.771-2.671c-0.68-0.846-1.445-1.625-2.278-2.321
	c-1.81-1.533-3.964-2.571-5.982-3.368c-0.564-0.22-1.137-0.424-1.978-0.668c-1.761-0.518-4.274-1.065-6.477-1.265
	c-1.141-0.112-2.287-0.168-3.434-0.169l-36.35-0.012l0.005,3.953c1.541,0.519,3.203,0.667,4.876,1.743
	c2.298,1.625,3.006,3.663,3.049,5.709l-0.029,72.154c-0.015,1.501-0.469,3.132-1.594,4.647c-1.128,1.492-2.577,2.373-4.021,2.822
	l-3.142,0.973l0.002,2.582L444.937,116.979"/>
<path fill="#C29E31" d="M250.859,221.632c-2.961,2.712-6.052,3.897-9.203,3.919l-12.007-0.012c-0.889-0.001-1.776-0.145-2.621-0.421
	s-1.645-0.688-2.362-1.211c-0.717-0.524-1.352-1.162-1.872-1.882c-1.081-1.491-1.611-3.271-1.606-4.991V185.2l14.353-0.009
	c1.442,0.032,2.926,0.409,4.438,1.489c3.106,2.435,3.437,5.319,3.73,8.164c0.081,0.897,0.106,1.802,0.131,2.705l3.197-0.007
	l0.012-31.108l-3.223,0.01c-0.024,2.762-0.622,5.594-2.071,8.424c-0.488,0.877-1.131,1.668-1.893,2.321
	c-1.594,1.373-3.608,2.042-5.534,2.036l-13.141,0.006v-37.519l16.518,0.029c1.679,0.003,3.36,0.278,4.941,0.845
	c1.581,0.566,3.061,1.413,4.35,2.49c3.82,3.319,5.616,7.85,5.739,11.994l4.277,0.007l-2.044-20.746l-55.238-0.003v3.332
	c1.497,0.648,3.151,0.908,4.791,2.208c2.164,1.789,2.885,3.956,2.888,6.123l-0.005,70.89c0,0.932-0.152,1.864-0.451,2.747
	c-0.298,0.883-0.743,1.716-1.31,2.456c-1.271,1.653-2.925,2.608-4.563,3.057l-2.813,0.77l-0.004,3l61.069-0.009l1.023-24.463
	l-2.63,0.006c-0.21,3.108-1.025,6.325-2.602,9.413c-0.746,1.46-1.64,2.843-2.663,4.123
	C251.961,220.563,251.426,221.115,250.859,221.632 M383.7,224.237c-1.152-1.167-1.727-2.716-1.726-4.187l-0.004-78.729
	c6.353,0.014,12.7-0.116,19.06,0.04c0.649,0.047,1.296,0.115,1.942,0.2c0.646,0.084,1.29,0.184,2.328,0.438
	c2.011,0.479,5.202,1.525,7.794,3.265c1.245,0.81,2.411,1.738,3.424,2.664c5.563,5.303,7.968,10.673,9.566,16.162
	c0.337,1.219,0.611,2.454,0.904,4.129s0.605,3.789,0.868,5.909c0.264,2.12,0.479,4.246,0.62,5.972
	c0.275,3.359,0.292,5.613,0.169,8.354c-0.19,3.92-0.767,7.859-1.75,11.788c-0.869,3.567-2.115,6.933-3.922,10.267
	c-1.075,2.015-2.578,4.35-4.724,6.692c-3.479,3.739-7.571,6.077-11.422,7.378c-2.776,0.932-5.674,1.429-8.55,1.44h-10.417
	c-0.773,0-1.544-0.179-2.256-0.483C384.896,225.233,384.244,224.788,383.7,224.237 M101.578,248.099
	c1.115-0.011,2.235-0.127,3.349-0.308c1.807-0.296,4.216-0.975,6.518-1.952c2.268-0.97,5.033-2.416,7.778-5.085
	c2.551-2.523,4.116-5.035,5.361-7.542c2.872-6.058,4.105-13.237,3.283-19.945c-0.132-1.155-0.313-2.306-0.731-3.856
	s-1.076-3.501-1.985-5.33c-0.908-1.83-2.068-3.538-3.421-5.076c-2.608-3.03-5.972-5.064-9.157-6.844
	c-3.206-1.751-6.497-3.147-9.813-4.215c2.353-0.512,4.724-1.348,7.033-2.569c1.107-0.585,2.173-1.247,3.103-1.918
	s1.723-1.352,2.471-2.078c4.431-4.271,6.049-8.907,7.162-13.465c0.815-4.136,0.9-8.558,0.118-12.905
	c-0.685-3.521-1.969-7.128-5.013-10.768c-0.657-0.796-1.357-1.557-2.702-2.682c-1.344-1.124-3.332-2.613-5.485-3.813
	c-4.407-2.447-9.367-3.654-14.203-3.673l-46.797-0.048v3.922l3.763,0.741c0.924,0.141,1.823,0.446,2.639,0.901
	s1.549,1.059,2.153,1.771c1.27,1.489,1.864,3.371,1.848,5.167l0.052,88.301c0.001,1.034-0.156,2.072-0.5,3.048
	s-0.865,1.89-1.527,2.686c-1.461,1.75-3.39,2.712-5.27,3.033l-3.117,0.418v4.119L101.578,248.099 M414.563,228.93
	c5.955-1.967,11.645-4.853,17.751-10.951c7.126-7.399,9.812-15.151,11.71-22.943c0.309-1.377,0.569-2.765,0.8-4.429
	c0.23-1.665,0.431-3.605,0.558-5.552s0.18-3.897,0.172-5.529c-0.019-3.172-0.271-5.481-0.73-8.158
	c-1.31-7.036-3.62-14.184-10.398-21.447c-6.36-6.567-13.158-9.319-19.853-11.476c-4.443-1.317-9.027-2.019-13.588-2.109
	l-42.209-0.002v3.25c1.711,0.292,3.583,0.161,5.413,1.214c0.742,0.415,1.41,0.963,1.964,1.608c1.163,1.353,1.752,3.053,1.755,4.683
	l-0.017,72.35c0.007,0.972-0.132,1.979-0.489,2.956c-0.395,1.054-0.89,1.91-1.524,2.654c-0.417,0.507-1.039,1.057-1.761,1.55
	c-1.884,1.292-3.928,1.345-5.939,1.844v2.473l44.344,0.005C406.511,230.85,410.543,230.201,414.563,228.93 M279.629,219.099
	l0.196-64.432l63.46,78.045l2.965-0.042l-0.041-84.438c0-0.887,0.109-1.778,0.391-2.62c0.28-0.842,0.71-1.634,1.262-2.329
	c1.232-1.54,2.854-2.413,4.446-2.729l3.769-0.729v-3.485l-24.501,0.005v3.621l3.194,0.588c0.869,0.178,1.707,0.514,2.457,0.988
	c0.749,0.475,1.412,1.088,1.942,1.799c1.177,1.579,1.641,3.574,1.645,5.424l-0.023,56.171l-55.181-68.592l-20.967,0.002v3.53
	l4.67,0.887c1.283,0.285,2.513,0.705,3.909,2.348c1.063,1.341,1.478,2.835,1.44,4.327l-1.017,71.342
	c0.028,0.993-0.116,1.99-0.427,2.934s-0.787,1.831-1.4,2.612c-1.369,1.733-3.18,2.705-4.956,3.086l-2.345,0.439l-0.001,3.061
	l25.184,0.011l-0.002-3.036c-1.898-0.483-3.986-0.486-6.021-1.658c-0.826-0.479-1.566-1.104-2.177-1.839
	C280.222,222.855,279.611,220.936,279.629,219.099 M188.384,218.04c-1.046,1.582-2.302,3.143-3.857,4.654
	c-2.477,2.428-5.287,3.402-8.109,3.524H163.02c-1.038-0.043-2.068-0.28-3.018-0.702c-0.949-0.421-1.817-1.025-2.542-1.77
	c-1.536-1.576-2.325-3.647-2.334-5.619l-0.024-70.48c0.065-1.842,0.43-3.776,2.784-5.824c0.915-0.739,1.943-1.208,2.971-1.456
	l4.08-1.001l-0.001-3.034l-33.075,0.014l0,3.115c1.511,0.306,2.976,0.393,4.542,0.918c0.819,0.318,1.507,0.697,2.234,1.364
	c0.862,0.781,1.562,1.853,1.858,2.886c0.173,0.568,0.272,1.161,0.272,1.755l0.007,74.594c0,0.785-0.108,1.574-0.361,2.318
	c-0.252,0.745-0.636,1.444-1.126,2.06c-1.096,1.36-2.53,2.139-3.94,2.42l-2.519,0.481v2.649l61.43,0.007l1.553-23.831l-3.111-0.258
	C192.126,210.518,190.864,214.258,188.384,218.04 M76.564,139.586l8.587-0.021c2.854-0.001,5.857,0.592,8.728,1.963
	c1.354,0.649,2.63,1.458,3.619,2.182c2.065,1.532,3.071,2.769,4.155,4.231c1.833,2.584,2.941,5.45,3.53,8.321
	c0.453,2.196,0.553,4.806,0.506,7.586c-0.062,2.808-0.302,5.51-0.815,8.007c-0.236,1.168-0.526,2.325-0.816,3.284
	c-0.537,1.788-1.155,3.101-2.15,4.567c-0.46,0.673-0.971,1.311-1.797,2.119s-1.967,1.786-3.214,2.605
	c-2.591,1.698-5.512,2.648-8.387,2.931c-3.98,0.365-7.962,0.418-11.946,0.16V139.586 M76.588,192.962
	c3.708,0.005,7.413-0.061,11.125,0.016c0.443,0.028,0.885,0.071,1.326,0.127c0.96,0.107,2.582,0.472,4.302,1.053
	c1.932,0.675,3.746,1.569,5.563,2.862c0.898,0.644,1.803,1.396,2.633,2.225c3.806,3.863,5.227,8.137,6.205,12.317
	c0.528,2.417,0.764,5.224,0.843,8.209c0.038,1.598,0.012,3.195-0.039,4.382c-0.099,2.264-0.302,3.402-0.648,5.025
	c-0.471,2.082-1.144,4.037-2.2,5.969c-0.607,1.136-1.616,2.676-3.224,4.21c-0.802,0.749-1.702,1.396-2.667,1.918
	c-1.758,0.937-3.568,1.469-5.087,1.71c-1.584,0.266-2.812,0.376-4.287,0.389c-0.822,0.008-1.771-0.016-2.717-0.066
	c-0.947-0.051-1.892-0.128-2.571-0.198c-1.291-0.133-1.852-0.273-2.727-0.501c-0.788-0.206-1.926-0.609-3.063-1.435
	c-2.041-1.604-2.717-3.593-2.747-5.568L76.588,192.962"/>
</svg>
