<svg xmlns="http://www.w3.org/2000/svg" viewBox="5.5 -3.5 64 64"><circle cx="37.8" cy="28" r="28.8" fill="#FFF"/><path d="M37.4-3.5c9 0 16.5 3.1 22.7 9.3C66.4 12 69.5 19.5 69.5 28.5c0 9-3 16.5-9.1 22.5C53.9 57.3 46.3 60.5 37.4 60.5c-8.6 0-16.2-3.1-22.5-9.4C8.6 44.8 5.5 37.3 5.5 28.5c0-8.7 3.1-16.3 9.4-22.7C21.1-0.4 28.6-3.5 37.4-3.5zM37.6 2.3c-7.3 0-13.4 2.6-18.5 7.7 -5.2 5.3-7.8 11.5-7.8 18.5 0 7.1 2.6 13.3 7.8 18.4 5.2 5.2 11.4 7.8 18.5 7.8 7.1 0 13.3-2.6 18.6-7.8 5-4.9 7.5-11 7.5-18.3 0-7.3-2.6-13.5-7.7-18.5C51 4.8 44.8 2.3 37.6 2.3zM58.4 29.1l0.6 0.3v9l-0.6 0.3 -7.8 3.3L50.4 42.1l-0.4-0.1 -16.7-6.9 -0.6-0.2 -8.3 3.4 -8.2-3.5V26.5l7.7-3.2 -0.1-0.1v-9l8.7-3.8 19.6 8.1v7.9L58.4 29.1zM49.3 39.6v-5.7h-0.1v-0.2l-14.7-6v5.8l14.7 6.1v-0.1L49.3 39.6zM50.3 32.2l5.1-2.1 -4.7-2 -5 2.1L50.3 32.2zM57 37.1V31.5l-5.7 2.4v5.6L57 37.1z"/></svg>