<?xml version="1.0" encoding="utf-8"?>
<!-- Generator: Adobe Illustrator 15.0.2, SVG Export Plug-In . SVG Version: 6.00 Build 0)  -->
<!DOCTYPE svg PUBLIC "-//W3C//DTD SVG 1.1//EN" "http://www.w3.org/Graphics/SVG/1.1/DTD/svg11.dtd">
<svg version="1.1" id="Layer_1" xmlns="http://www.w3.org/2000/svg" xmlns:xlink="http://www.w3.org/1999/xlink" x="0px" y="0px" viewBox="16.633 103.85 446.387 208.62"
	 enable-background="new 16.633 103.85 446.387 208.62" xml:space="preserve">
<g>
	<g>
		<path fill="#2A3141" d="M102.086,127.97c-1.966,0-3.6-0.653-5.026-2.301c2.94-1.746,4.9-5.786,4.9-9.387
			c0-3.813-2.066-7.3-8.073-7.3c-5.987,0-10.033,3.373-10.033,9.913c0,16.047,24.546,18.233,24.546,41.794
			c0,18.333-14.826,27.28-30.659,27.28c-12.44,0-23.127-5.447-23.127-18.761c0-11.779,8.406-17.906,16.033-17.906
			c3.82,0,9.267,1.54,9.6,7.213c-5.899,0-12.767,2.727-12.767,10.247c0,5.467,3.487,10.486,10.467,10.486
			c7.327,0,12.66-5.359,12.66-14.526c0-18.653-22.373-25.313-22.373-41.34c0-11.347,11.14-19.533,25.213-19.533
			c5.134,0,17.561,1.086,17.561,13.086C111.02,123.277,107.533,127.97,102.086,127.97z"/>
	</g>
	<g>
		<path fill="#2A3141" d="M136.453,177.177c8.62,0,13.866-4.813,19.307-11.033h3.72c-6.233,10.054-15.507,20.174-30.007,20.174
			c-10.26,0-17.033-5.007-17.033-17.347c0-12.547,7.087-38.834,29.467-38.834c9.707,0,12.014,5.014,12.014,10.474
			c0,12.547-12.014,22.26-25.113,23.02c-0.106,1.527-0.214,3.054-0.214,4.367C128.593,175.43,131.213,177.177,136.453,177.177z
			 M142.78,135.93c-5.56,0-10.913,11.666-13.086,22.466c8.387-0.533,15.807-8.946,15.807-18
			C145.5,137.67,144.86,135.93,142.78,135.93z"/>
	</g>
	<g>
		<path fill="#2A3141" d="M208.147,131.117l-7.873,37.1c-0.327,1.427-0.427,2.507-0.427,3.493c0,3.047,1.427,4.687,4.486,4.687
			c4.247,0,7.187-4.807,8.82-10.26h4.593c-6.233,17.787-16.04,20.174-21.946,20.174c-6.113,0-10.04-3.474-10.693-10.014
			c-3.373,5-8.5,10.014-16.253,10.014c-7.421,0-14.514-4.567-14.514-17.561c0-14.727,9.054-38.193,28.04-38.193
			c6.22,0,8.833,2.407,8.833,5.567v0.767l1.207-5.787h15.727V131.117z M170.5,167.237c0,8.399,3.486,8.506,5.439,8.506
			c3.181,0,7.754-3.267,9.073-9.6l5.221-24.653c0-1.32-0.98-4.153-4.48-4.153C176.493,137.344,170.5,156.983,170.5,167.237z"/>
	</g>
	<g>
		<path fill="#2A3141" d="M249.713,120.223c0.106-1.094,0.207-1.974,0.207-2.94c0-2.513-1.96-3.72-4.141-3.72
			c-2.393,0-6.106,1.64-7.64,8.946l-1.84,8.614h7.946l-0.767,4.373h-8.073l-12.54,58.92c-3.273,15.594-12.34,18.54-19.547,18.54
			c-6.64,0-12.866-4.693-12.866-11.787c0-10.04,8.4-13.199,18.76-16.359l13.2-62.307c3.273-15.601,12.66-18.54,19.86-18.54
			c6.659,0,12.866,4.687,12.866,11.767c0,1.76-0.093,3.173-0.313,4.493H249.713z M200.826,203.243c2.287,0,4.8-2.073,6.221-8.5
			l1.413-6.333c-6.86,2.293-11.987,5.354-11.987,11.24C196.473,201.17,198.433,203.243,200.826,203.243z"/>
	</g>
	<g>
		<path fill="#2A3141" d="M294.66,131.117l-7.854,37.1c-0.34,1.427-0.434,2.507-0.434,3.493c0,3.047,1.413,4.687,4.467,4.687
			c4.267,0,7.207-4.807,8.84-10.26h4.594c-6.233,17.787-16.054,20.174-21.947,20.174c-6.113,0-10.047-3.474-10.693-10.014
			c-3.38,5-8.507,10.014-16.253,10.014c-7.427,0-14.521-4.567-14.521-17.561c0-14.727,9.047-38.193,28.034-38.193
			c6.232,0,8.846,2.407,8.846,5.567v0.767l1.2-5.787h15.721V131.117z M257.027,167.237c0,8.399,3.493,8.506,5.44,8.506
			c3.173,0,7.76-3.267,9.06-9.6l5.24-24.653c0-1.32-0.987-4.153-4.487-4.153C263.02,137.344,257.027,156.983,257.027,167.237z"/>
	</g>
	<g>
		<path fill="#2A3141" d="M322.814,131.117l-1.427,6.773c3.819-3.273,7.967-6.773,13.199-6.773c4.907,0,7.534,4.033,7.534,8.187
			c0,3.826-2.514,7.96-7.86,7.96c-6.1,0-3.06-7.2-6.32-7.2c-3.273,0-5.239,1.64-7.979,4.146l-8.714,41.474h-15.713l11.566-54.566
			H322.814z"/>
	</g>
	<g>
		<path fill="#2A3141" d="M363.293,177.177c8.62,0,13.854-4.813,19.307-11.033h3.714c-6.228,10.054-15.494,20.174-30,20.174
			c-10.254,0-17.04-5.007-17.04-17.347c0-12.547,7.086-38.834,29.473-38.834c9.707,0,12,5.014,12,10.474
			c0,12.547-12,22.26-25.1,23.02c-0.113,1.527-0.22,3.054-0.22,4.367C355.427,175.43,358.04,177.177,363.293,177.177z
			 M369.62,135.93c-5.561,0-10.914,11.666-13.087,22.466c8.387-0.533,15.807-8.946,15.807-18
			C372.347,137.67,371.694,135.93,369.62,135.93z"/>
	</g>
	<g>
		<path fill="#2A3141" d="M405.727,131.117l-1.413,6.773c3.826-3.273,7.973-6.773,13.193-6.773c4.913,0,7.532,4.033,7.532,8.187
			c0,3.826-2.5,7.96-7.866,7.96c-6.106,0-3.047-7.2-6.326-7.2c-3.267,0-5.221,1.64-7.954,4.146l-8.732,41.474h-15.707l11.573-54.566
			H405.727z"/>
	</g>
</g>
<g>
	<g>
		<path fill="#2A3141" d="M64.1,227.483c-1.96,0-3.587-0.666-5.007-2.307c2.947-1.733,4.914-5.78,4.914-9.387
			c0-3.813-2.08-7.307-8.074-7.307c-6.02,0-10.053,3.394-10.053,9.94c0,16.026,24.553,18.213,24.553,41.786
			c0,18.32-14.84,27.28-30.659,27.28c-12.434,0-23.141-5.446-23.141-18.76c0-11.787,8.407-17.894,16.047-17.894
			c3.813,0,9.273,1.526,9.587,7.2c-5.88,0-12.747,2.713-12.747,10.246c0,5.454,3.48,10.467,10.467,10.467
			c7.313,0,12.646-5.326,12.646-14.493c0-18.673-22.359-25.326-22.359-41.366c0-11.354,11.12-19.534,25.187-19.534
			c5.133,0,17.587,1.094,17.587,13.101C73.067,222.783,69.573,227.483,64.1,227.483z"/>
	</g>
	<g>
		<path fill="#2A3141" d="M103.274,240.124c-4.254,0-7.641,6.666-8.28,9.606l-7.533,35.453H71.746l15.82-74.193l16.146-2.18
			l-5.887,27.493c4.58-5.227,9.394-6.113,12.767-6.113c6.98,0,12.101,3.606,12.101,12.347c0,8.826-5.233,22.033-5.233,28.153
			c0,2.733,1.087,4.587,4.373,4.587c4.787,0,6.76-3.934,9.16-9.62h4.587c-6.113,17.906-14.527,20.193-20.301,20.193
			c-9.493,0-12.886-6.107-12.886-12.334c0-7.406,4.906-20.833,4.906-27.813C107.314,242.09,106.013,240.124,103.274,240.124z"/>
	</g>
	<g>
		<path fill="#2A3141" d="M154.126,230.643l-7.853,37.087c-0.341,1.433-0.44,2.513-0.44,3.5c0,3.047,1.427,4.033,4.486,4.033
			c4.24,0,8.181-4.153,9.801-9.62h4.593c-6.22,17.8-17.026,20.193-22.92,20.193c-6.547,0-11.68-3.92-11.68-13.087
			c0-2.073,0.34-4.479,0.88-7.106l7.413-35H154.126z M149.22,207.39c4.793,0,8.727,3.939,8.727,8.739
			c0,4.794-3.934,8.607-8.727,8.607c-4.8,0-8.62-3.813-8.62-8.607C140.6,211.33,144.42,207.39,149.22,207.39z"/>
	</g>
	<g>
		<path fill="#2A3141" d="M184.126,226.596l-1.739,8.181c3.166-2.721,7.3-4.681,12.76-4.681c7.427,0,13.307,4.254,13.307,17.233
			c0,14.74-5.667,38.514-26.84,38.514c-5.44,0-8.066-1.847-9.267-3.92l-5.674,26.62l-16.479,3.927l18.206-85.874H184.126z
			 M193.52,247.016c0-8.413-3.493-9.073-5.46-9.073c-2.399,0-5.46,1.86-7.533,5.354l-6.434,30.56c0.427,1.2,1.641,2.514,4.147,2.514
			C189.687,276.363,193.52,257.263,193.52,247.016z"/>
	</g>
	<g>
		<path fill="#2A3141" d="M234.32,230.643l-7.853,37.087c-0.221,0.873-0.327,1.859-0.327,2.733c0,2.513,0.753,4.807,3.273,4.807
			c4.24,0,7.087-4.153,8.72-9.62l7.427-35h15.7l-7.854,37.087c-0.333,1.533-0.54,2.953-0.54,3.933c0,2.187,1.08,3.607,3.707,3.607
			c10.693,0,18.866-24.44,18.866-36.46c-0.313,0.779-2.62,1.106-3.479,1.106c-2.627,0-3.927-3.181-3.927-5.573
			c0-3.387,2.187-5.887,6.773-5.887c5.233,0,6.873,4.699,6.873,9.479c0,17.46-8.854,47.907-31.113,47.907
			c-7.087,0-11.78-3.047-13.087-9.167c-5.34,7.866-11.133,9.167-15.486,9.167c-6.54,0-11.674-3.92-11.674-13.087
			c0-2.073,0.327-4.48,0.867-7.106l7.413-35h15.72V230.643z"/>
	</g>
	<g>
		<path fill="#2A3141" d="M325.647,247.103c0.434,0.22,0.866,0.22,1.207,0.22c5.02,0,12.113-3.267,16.8-6.533l0.973,2.94
			c-4.146,4.467-11.333,7.746-19.307,9.047c-1.733,20.193-12.64,32.84-26.066,32.84c-10.14,0-17.467-4.794-17.467-17.227
			c0-12.554,7.427-38.74,29.907-38.74C321.06,229.657,325.647,235.657,325.647,247.103z M316.28,253.11
			c-2.3-0.533-2.946-2.4-2.946-4.587c0-3.047,1.413-5.014,3.373-5.887c-0.213-4.587-1.3-6.333-4.14-6.333
			c-7.76,0-14.52,19.967-14.52,30.673c0,7.2,1.42,8.827,5.56,8.827C308.953,275.803,314.527,265.983,316.28,253.11z"/>
	</g>
	<g>
		<path fill="#2A3141" d="M354.34,230.643l-1.427,6.76c3.827-3.279,7.974-6.76,13.207-6.76c4.899,0,7.54,4.026,7.54,8.167
			c0,3.826-2.514,7.979-7.86,7.979c-6.12,0-3.061-7.2-6.327-7.2c-3.279,0-5.246,1.627-7.973,4.141l-8.727,41.46h-15.721
			l11.567-54.547H354.34L354.34,230.643z"/>
	</g>
	<g>
		<path fill="#2A3141" d="M423.74,230.643l-21.819,15.153c1.206-0.22,2.399-0.427,3.6-0.427c8.073,0,12,5.767,12,12.76
			c0,1.301-0.1,2.733-0.433,4.141l-1.193,5.453c-0.214,1.106-0.554,2.293-0.554,3.5c0,2.187,0.873,4.033,4.26,4.033
			c4.807,0,6.76-3.934,9.167-9.62h4.586c-6.22,18.347-15.06,20.193-20.079,20.193c-8.947,0-13.754-4.479-13.754-12.42
			c0-1.76,0.221-3.62,0.66-5.693l0.88-4.26c0.32-1.407,0.434-2.84,0.434-4.033c0-3.167-1.1-5.233-3.927-5.233
			c-2.514,0-5.026,1.533-8.08,4.033l-5.68,26.953h-15.714l15.827-74.193l16.16-2.18l-8.193,38.406l21.053-16.573h10.8V230.643z"/>
	</g>
	<g>
		<path fill="#2A3141" d="M460.619,227.25c1.301,28.267,2.4,32.527,2.4,39.727c0,14.181-12.88,18.867-21.827,18.867
			c-11.126,0-15.933-7.32-15.933-13.974c0-5.014,2.854-8.713,5.8-10.14c6.1-10.794,10.033-21.601,13.42-32.294L460.619,227.25z
			 M434.006,271.01c-1.106,0-2.399-0.326-2.939-1.42c0,5.134,1.833,7.641,6.64,7.641s9.5-2.514,9.5-10.153
			c0-5.681-0.979-9.047-2.08-25.86c-2.18,7.094-5.227,13.646-8.84,20.627c1.42,0.653,2.514,1.967,2.514,3.8
			C438.793,268.277,436.82,271.01,434.006,271.01z"/>
	</g>
</g>
</svg>
